<?xml version="1.0" encoding="UTF-8" standalone="no" ?>
<!DOCTYPE svg PUBLIC "-//W3C//DTD SVG 1.1//EN" "http://www.w3.org/Graphics/SVG/1.1/DTD/svg11.dtd">
<svg xmlns="http://www.w3.org/2000/svg" xmlns:xlink="http://www.w3.org/1999/xlink" version="1.1" width="1080" height="1080" viewBox="0 0 1080 1080" xml:space="preserve">
<desc>Created with Fabric.js 5.2.4</desc>
<defs>
</defs>
<g transform="matrix(1 0 0 1 540 540)" id="a27d587d-635c-4c59-9a44-c1733102251c"  >
</g>
<g transform="matrix(1 0 0 1 540 540)" id="a7c96dbc-16e1-4e68-8ba5-156b3e1d46a7"  >
<rect style="stroke: none; stroke-width: 1; stroke-dasharray: none; stroke-linecap: butt; stroke-dashoffset: 0; stroke-linejoin: miter; stroke-miterlimit: 4; fill: rgb(255,255,255); fill-rule: nonzero; opacity: 1; visibility: hidden;" vector-effect="non-scaling-stroke"  x="-540" y="-540" rx="0" ry="0" width="1080" height="1080" />
</g>
<g transform="matrix(1 0 0 1 430.63 544.52)" clip-path="url(#CLIPPATH_10)"  >
<clipPath id="CLIPPATH_10" >
	<rect transform="matrix(1 0 0 1 211.2 1.47)" id="clip0_3_29" x="-248.7" y="-43.5" rx="0" ry="0" width="497.4" height="87" />
</clipPath>
<path style="stroke: none; stroke-width: 1; stroke-dasharray: none; stroke-linecap: butt; stroke-dashoffset: 0; stroke-linejoin: miter; stroke-miterlimit: 4; fill: rgb(37,211,102); fill-rule: nonzero; opacity: 1;" vector-effect="non-scaling-stroke"  transform=" translate(-37.5, -42.03)" d="M 68.5345 9.05173 L 6.46552 9.05173 C 2.94569 9.05173 0 11.9961 0 15.5172 L 0 55.6034 C 0 59.1246 2.94569 62.069 6.46552 62.069 L 25.8621 62.069 L 37.5 75 L 49.1379 62.069 L 68.5345 62.069 C 72.0543 62.069 75 59.1246 75 55.6034 L 75 15.5172 C 75 11.9961 72.0543 9.05173 68.5345 9.05173 Z" stroke-linecap="round" />
</g>
<g transform="matrix(1 0 0 1 430.62 507.03)" clip-path="url(#CLIPPATH_11)"  >
<clipPath id="CLIPPATH_11" >
	<rect transform="matrix(1 0 0 1 211.2 38.97)" id="clip0_3_29" x="-248.7" y="-43.5" rx="0" ry="0" width="497.4" height="87" />
</clipPath>
<path style="stroke: none; stroke-width: 1; stroke-dasharray: none; stroke-linecap: butt; stroke-dashoffset: 0; stroke-linejoin: miter; stroke-miterlimit: 4; fill: rgb(43,183,65); fill-rule: nonzero; opacity: 1;" vector-effect="non-scaling-stroke"  transform=" translate(-37.5, -4.53)" d="M 65.9483 9.05173 L 65.9483 4.90474 C 65.9483 2.23448 63.7138 0 61.0435 0 L 13.9565 0 C 11.2862 0 9.05173 2.23448 9.05173 4.90474 L 9.05173 9.05173 L 65.9483 9.05173 Z" stroke-linecap="round" />
</g>
<g transform="matrix(1 0 0 1 413.81 538.69)" clip-path="url(#CLIPPATH_12)"  >
<clipPath id="CLIPPATH_12" >
	<rect transform="matrix(1 0 0 1 228.01 7.31)" id="clip0_3_29" x="-248.7" y="-43.5" rx="0" ry="0" width="497.4" height="87" />
</clipPath>
<path style="stroke: none; stroke-width: 1; stroke-dasharray: none; stroke-linecap: butt; stroke-dashoffset: 0; stroke-linejoin: miter; stroke-miterlimit: 4; fill: rgb(255,255,255); fill-rule: nonzero; opacity: 1;" vector-effect="non-scaling-stroke"  transform=" translate(-20.69, -36.19)" d="M 20.6897 40.0669 C 22.8321 40.0669 24.569 38.33 24.569 36.1876 C 24.569 34.0451 22.8321 32.3082 20.6897 32.3082 C 18.5472 32.3082 16.8103 34.0451 16.8103 36.1876 C 16.8103 38.33 18.5472 40.0669 20.6897 40.0669 Z" stroke-linecap="round" />
</g>
<g transform="matrix(1 0 0 1 430.62 538.69)" clip-path="url(#CLIPPATH_13)"  >
<clipPath id="CLIPPATH_13" >
	<rect transform="matrix(1 0 0 1 211.2 7.31)" id="clip0_3_29" x="-248.7" y="-43.5" rx="0" ry="0" width="497.4" height="87" />
</clipPath>
<path style="stroke: none; stroke-width: 1; stroke-dasharray: none; stroke-linecap: butt; stroke-dashoffset: 0; stroke-linejoin: miter; stroke-miterlimit: 4; fill: rgb(255,255,255); fill-rule: nonzero; opacity: 1;" vector-effect="non-scaling-stroke"  transform=" translate(-37.5, -36.19)" d="M 37.5 40.0669 C 39.6425 40.0669 41.3793 38.33 41.3793 36.1876 C 41.3793 34.0451 39.6425 32.3082 37.5 32.3082 C 35.3575 32.3082 33.6207 34.0451 33.6207 36.1876 C 33.6207 38.33 35.3575 40.0669 37.5 40.0669 Z" stroke-linecap="round" />
</g>
<g transform="matrix(1 0 0 1 447.43 538.69)" clip-path="url(#CLIPPATH_14)"  >
<clipPath id="CLIPPATH_14" >
	<rect transform="matrix(1 0 0 1 194.39 7.31)" id="clip0_3_29" x="-248.7" y="-43.5" rx="0" ry="0" width="497.4" height="87" />
</clipPath>
<path style="stroke: none; stroke-width: 1; stroke-dasharray: none; stroke-linecap: butt; stroke-dashoffset: 0; stroke-linejoin: miter; stroke-miterlimit: 4; fill: rgb(255,255,255); fill-rule: nonzero; opacity: 1;" vector-effect="non-scaling-stroke"  transform=" translate(-54.31, -36.19)" d="M 54.3104 40.0669 C 56.4528 40.0669 58.1897 38.33 58.1897 36.1876 C 58.1897 34.0451 56.4528 32.3082 54.3104 32.3082 C 52.1679 32.3082 50.431 34.0451 50.431 36.1876 C 50.431 38.33 52.1679 40.0669 54.3104 40.0669 Z" stroke-linecap="round" />
</g>
<g transform="matrix(0.74 0 0 0.73 604.43 540)" style="" id="50e73f2b-1b36-4f37-a4d4-eef9d42f82e5"  >
		<text xml:space="preserve" font-family="Raleway" font-size="105" font-style="normal" font-weight="700" style="stroke: none; stroke-width: 1; stroke-dasharray: none; stroke-linecap: butt; stroke-dashoffset: 0; stroke-linejoin: miter; stroke-miterlimit: 4; fill: rgb(0,0,0); fill-rule: nonzero; opacity: 1; white-space: pre;" ><tspan x="-154.58" y="32.98" >Chatty</tspan></text>
</g>
</svg>